<svg width="167" height="33" viewBox="0 0 167 33" fill="none" xmlns="http://www.w3.org/2000/svg">
<path d="M42.0397 13.314L39.935 15.5849V21.2081H35.8875V1.52686H39.935V10.4483L41.7159 8.00167L46.7213 1.52686H51.6997L44.7245 10.2726L51.9021 21.2081H47.0855L42.0397 13.314Z" fill="#27272A"/>
<path d="M61.6296 21.2081C61.4497 20.8567 61.3193 20.4196 61.2383 19.8969C60.2939 20.9513 59.0662 21.4785 57.5551 21.4785C56.125 21.4785 54.9377 21.0639 53.9933 20.2349C53.0579 19.4058 52.5902 18.3605 52.5902 17.0989C52.5902 15.5489 53.1613 14.3593 54.3036 13.5303C55.4549 12.7012 57.1144 12.2822 59.282 12.2732H61.0764V11.4351C61.0764 10.7592 60.901 10.2185 60.5502 9.813C60.2085 9.40748 59.6643 9.20472 58.9177 9.20472C58.2612 9.20472 57.744 9.36242 57.3662 9.67782C56.9974 9.99323 56.813 10.4258 56.813 10.9755H52.914C52.914 10.1284 53.1748 9.3444 53.6965 8.62347C54.2181 7.90254 54.9557 7.33932 55.9091 6.9338C56.8625 6.51927 57.9329 6.312 59.1201 6.312C60.919 6.312 62.3446 6.76709 63.397 7.67725C64.4583 8.57841 64.989 9.84904 64.989 11.4891V17.8288C64.998 19.2166 65.1914 20.2664 65.5691 20.9783V21.2081H61.6296ZM58.4051 18.4911C58.9807 18.4911 59.5114 18.365 59.9971 18.1127C60.4828 17.8513 60.8426 17.5044 61.0764 17.0718V14.5576H59.6193C57.6675 14.5576 56.6287 15.2335 56.5027 16.5852L56.4892 16.815C56.4892 17.3016 56.6601 17.7026 57.0019 18.018C57.3437 18.3334 57.8114 18.4911 58.4051 18.4911Z" fill="#27272A"/>
<path d="M71.6404 6.58235L71.7618 8.21795C72.7962 6.94732 74.1948 6.312 75.9577 6.312C77.8376 6.312 79.1283 7.05546 79.8299 8.54237C80.8552 7.05546 82.3168 6.312 84.2146 6.312C85.7977 6.312 86.9759 6.7761 87.7495 7.70429C88.523 8.62347 88.9098 10.0113 88.9098 11.8676V21.2081H84.9972V11.8812C84.9972 11.0521 84.8353 10.4483 84.5115 10.0698C84.1877 9.68233 83.6165 9.48858 82.798 9.48858C81.6287 9.48858 80.8192 10.0473 80.3695 11.1647L80.383 21.2081H76.4839V11.8947C76.4839 11.0476 76.3175 10.4348 75.9847 10.0563C75.6519 9.67782 75.0853 9.48858 74.2848 9.48858C73.1785 9.48858 72.3779 9.94817 71.8833 10.8674V21.2081H67.9842V6.58235H71.6404Z" fill="#27272A"/>
<path d="M105.059 14.0304C105.059 16.2833 104.547 18.0901 103.521 19.4509C102.505 20.8026 101.129 21.4785 99.3928 21.4785C97.9177 21.4785 96.7259 20.9648 95.8175 19.9375V26.8314H91.9184V6.58235H95.5342L95.6691 8.01519C96.6135 6.87973 97.8457 6.312 99.3658 6.312C101.165 6.312 102.563 6.97886 103.562 8.31257C104.56 9.64628 105.059 11.4846 105.059 13.8277V14.0304ZM101.16 13.7465C101.16 12.3858 100.917 11.336 100.432 10.597C99.9549 9.85806 99.2579 9.48858 98.3404 9.48858C97.1172 9.48858 96.2762 9.95718 95.8175 10.8944V16.8826C96.2942 17.8468 97.1442 18.3289 98.3674 18.3289C100.229 18.3289 101.16 16.8015 101.16 13.7465Z" fill="#27272A"/>
<path d="M142.323 6.58235L142.445 8.27202C143.488 6.96534 144.887 6.312 146.641 6.312C148.188 6.312 149.339 6.76709 150.095 7.67725C150.85 8.58742 151.237 9.94817 151.255 11.7595V21.2081H147.356V11.8541C147.356 11.0251 147.176 10.4258 146.816 10.0563C146.456 9.67782 145.858 9.48858 145.022 9.48858C143.924 9.48858 143.101 9.95718 142.553 10.8944V21.2081H138.654V6.58235H142.323Z" fill="#27272A"/>
<path d="M153.656 13.7871C153.656 11.5432 154.187 9.7364 155.248 8.36664C156.319 6.99688 157.758 6.312 159.566 6.312C161.167 6.312 162.412 6.86171 163.303 7.96112L163.465 6.58235H167V20.7215C167 22.0011 166.707 23.1141 166.123 24.0603C165.547 25.0065 164.733 25.7274 163.681 26.2231C162.628 26.7187 161.396 26.9665 159.984 26.9665C158.914 26.9665 157.87 26.7502 156.854 26.3177C155.837 25.8941 155.068 25.3444 154.547 24.6686L156.274 22.2895C157.245 23.3799 158.423 23.9251 159.809 23.9251C160.843 23.9251 161.648 23.6458 162.224 23.087C162.799 22.5373 163.087 21.7533 163.087 20.735V19.951C162.188 20.9693 161.005 21.4785 159.539 21.4785C157.785 21.4785 156.364 20.7936 155.275 19.4238C154.196 18.0451 153.656 16.2202 153.656 13.9493V13.7871ZM157.555 14.071C157.555 15.3957 157.821 16.4365 158.351 17.1935C158.882 17.9414 159.611 18.3154 160.537 18.3154C161.724 18.3154 162.574 17.8693 163.087 16.9772V10.8268C162.565 9.93465 161.724 9.48858 160.564 9.48858C159.629 9.48858 158.891 9.87157 158.351 10.6376C157.821 11.4035 157.555 12.548 157.555 14.071Z" fill="#27272A"/>
<path d="M106.854 13.7608C106.854 12.3099 107.133 11.0168 107.691 9.88133C108.248 8.74587 109.049 7.86724 110.092 7.24544C111.144 6.62364 112.363 6.31274 113.748 6.31274C115.718 6.31274 117.324 6.91652 118.565 8.12407C119.815 9.33162 120.512 10.9717 120.656 13.0444L120.683 14.0447C120.683 16.2886 120.058 18.0909 118.808 19.4516C117.558 20.8034 115.88 21.4792 113.775 21.4792C111.671 21.4792 109.989 20.8034 108.729 19.4516C107.479 18.0999 106.854 16.2615 106.854 13.9365V13.7608ZM110.753 14.0447C110.753 15.4325 111.014 16.4958 111.536 17.2348C112.057 17.9647 112.804 18.3297 113.775 18.3297C114.72 18.3297 115.457 17.9692 115.988 17.2483C116.519 16.5183 116.784 15.3559 116.784 13.7608C116.784 12.4001 116.519 11.3457 115.988 10.5977C115.457 9.84979 114.711 9.4758 113.748 9.4758C112.795 9.4758 112.057 9.84979 111.536 10.5977C111.014 11.3367 110.753 12.4857 110.753 14.0447Z" fill="#27272A"/>
<path d="M122.477 13.7608C122.477 12.3099 122.756 11.0168 123.314 9.88133C123.872 8.74587 124.672 7.86724 125.715 7.24544C126.768 6.62364 127.987 6.31274 129.372 6.31274C131.342 6.31274 132.947 6.91652 134.188 8.12407C135.438 9.33162 136.136 10.9717 136.279 13.0444L136.306 14.0447C136.306 16.2886 135.681 18.0909 134.431 19.4516C133.181 20.8034 131.503 21.4792 129.399 21.4792C127.294 21.4792 125.612 20.8034 124.353 19.4516C123.103 18.0999 122.477 16.2615 122.477 13.9365V13.7608ZM126.377 14.0447C126.377 15.4325 126.637 16.4958 127.159 17.2348C127.681 17.9647 128.427 18.3297 129.399 18.3297C130.343 18.3297 131.081 17.9692 131.611 17.2483C132.142 16.5183 132.407 15.3559 132.407 13.7608C132.407 12.4001 132.142 11.3457 131.611 10.5977C131.081 9.84979 130.334 9.4758 129.372 9.4758C128.418 9.4758 127.681 9.84979 127.159 10.5977C126.637 11.3367 126.377 12.4857 126.377 14.0447Z" fill="#27272A"/>
<path d="M0.811272 18.3124C0.776047 18.0306 -0.0341083 17.9249 0.00111586 18.3476C0.03634 18.6646 0.318133 21.4473 2.81905 21.4473C5.8131 21.4473 9.37074 16.1285 11.3785 12.8879C14.443 7.88603 16.7678 4.39884 17.578 3.44779C19.1631 1.58091 19.938 1.65136 19.7266 2.56719C19.6562 2.95465 18.3177 5.91348 16.8735 9.22455C15.3589 12.6413 13.7033 16.4807 13.5976 18.3828C13.4567 21.1655 14.9009 20.3202 15.7463 19.3691C17.8245 17.0443 24.341 7.85081 29.5542 3.0251C31.4211 1.29912 31.9142 1.8627 31.562 2.60241C30.7166 4.15227 25.5386 10.6687 23.6013 15.7058C21.5583 21.0599 24.6228 23.8778 30.2234 17.9601C30.3643 17.784 29.8712 17.2909 29.519 17.6431C27.0533 20.1793 22.615 21.9053 24.7989 16.2342C26.4192 11.972 30.787 5.94871 31.6676 4.61019C35.0844 -0.532541 32.4426 -1.51882 28.5327 2.39106C26.8419 4.01138 24.4467 6.75886 20.8538 11.1971C20.3959 11.7607 15.2884 19.2282 14.6896 18.6646C14.0908 18.0658 17.4019 10.4926 18.6699 7.92126C20.8538 3.55346 22.1219 0.488959 20.1493 0.488959C17.9302 0.524183 14.7953 4.82153 11.132 11.0562C6.76415 18.4885 3.98145 20.4611 2.71338 20.4611C1.44531 20.4611 0.846496 18.4885 0.811272 18.3124Z" fill="#F97316"/>
<path d="M32.9946 21.1655C30.8811 22.7859 28.5564 24.6527 26.1963 26.9423C23.9068 29.1614 23.0614 31.6271 24.0477 32.5077C25.0339 33.4236 26.9713 32.5077 28.6972 30.6761C30.2823 28.9853 32.0788 25.3572 33.9104 21.6235C35.6012 20.3202 37.2215 19.1225 38.2782 18.0658C38.4191 17.9249 38.4896 16.833 38.0669 17.1852C37.151 18.0306 36.0591 18.876 34.8263 19.7918C35.883 17.6431 36.9749 15.6001 38.0317 14.015C38.243 13.7332 37.4328 13.1697 37.2215 13.4162C37.0102 13.5923 34.1218 17.6079 32.1844 19.2282C30.9516 20.2849 29.9653 20.2497 30.071 19.1225C30.3528 16.1285 33.2059 14.015 33.3468 13.9094C33.4877 13.7685 32.7832 13.2049 32.1844 13.5571C31.5856 13.9094 29.0143 16.4103 28.9086 19.1578C28.8029 22.0461 31.1629 22.1166 34.1218 18.6646C34.0865 18.8055 33.5934 19.8622 32.9946 21.1655ZM28.2041 26.4492C29.2961 25.2868 30.705 24.1244 32.1492 22.962C31.5856 24.1596 31.0573 25.2868 30.6698 25.8856C27.5349 31.1692 25.4214 32.4725 24.8226 31.9794C24.3647 31.6271 24.7169 30.0773 28.2041 26.4492Z" fill="#F97316"/>
</svg>
